<svg xmlns="http://www.w3.org/2000/svg" viewBox="0 0 89.56 28.13"><defs><style>.cls-1{fill:#575756;}.cls-2{fill:#fde7d7;stroke:#575756;stroke-miterlimit:10;stroke-width:0.5px;}.cls-3{fill:#6b705d;}</style></defs><g id="Lager_2" data-name="Lager 2"><g id="Lager_1-2" data-name="Lager 1"><path class="cls-1" d="M78.63,12.6a15.37,15.37,0,0,1-8,13.47c-5.08,2.6-12.37,2-16.41-2.26-1.31-1.39-1.92-3.17-2.79-4.82a20.87,20.87,0,0,0-5.3-6.3,18.54,18.54,0,0,0-11.64-4.3,25.15,25.15,0,0,0-14.77,4.66c-.27.18,0,.62.25.43A24.72,24.72,0,0,1,34.56,8.89a18.92,18.92,0,0,1,13.8,6.67,25.14,25.14,0,0,1,3.72,6A10.48,10.48,0,0,0,56,25.93a15.36,15.36,0,0,0,15.14.41,15.9,15.9,0,0,0,8-13.74c0-.32-.49-.32-.5,0Z"/><rect class="cls-2" x="76.03" y="1.35" width="12.18" height="12.18" rx="3.25" transform="matrix(0.56, -0.83, 0.83, 0.56, 29.92, 71.28)"/><path class="cls-3" d="M85.75,5.76A.3.3,0,0,0,86,5.64a2.09,2.09,0,0,1,.22-.2.49.49,0,0,1,.23-.13c.09,0,.19,0,.31.1s.07,0,.06,0,0-.06,0-.12a.31.31,0,0,0,.21.11.72.72,0,0,1,.19,0,.88.88,0,0,1,.2.51,2.71,2.71,0,0,1,0,.57,5.4,5.4,0,0,1-.1.58,3.68,3.68,0,0,0-.1.5s0,0,0,0l-.06,0a1.14,1.14,0,0,1-.08.27.49.49,0,0,0,0,.26l-1.46.85L84,9.8l-1.58.93c-.53.31-1.05.62-1.55.93a6.1,6.1,0,0,1-.38-.6,3,3,0,0,1-.26-.62,1.88,1.88,0,0,1-.09-.66,1.58,1.58,0,0,1,.15-.66s.07,0,.08,0,0,0,.06,0a.23.23,0,0,1,0-.12l0,0,0-.06a.24.24,0,0,0,0-.14.06.06,0,0,0,.07,0s.05,0,.08,0a.38.38,0,0,1,.11-.23A.57.57,0,0,1,81,8.5l.15-.09a.42.42,0,0,0,.12-.21s0,0,.07,0l0,0h0s0,0,.06,0a3.32,3.32,0,0,1,.33-.53l.37-.51c.13-.18.26-.36.38-.55A4.25,4.25,0,0,0,82.84,6a2.45,2.45,0,0,0-1.11.17,4.24,4.24,0,0,0-1,.59,7.51,7.51,0,0,0-.93.87l-.93,1a.88.88,0,0,0-.35.15A2.51,2.51,0,0,0,78.2,9l-.32.28a2.1,2.1,0,0,1-.33.22.81.81,0,0,1-.23-.3,2,2,0,0,1-.1-.35c0-.11-.06-.23-.1-.34a.85.85,0,0,0-.21-.31V7.67A1.13,1.13,0,0,1,77,7.16.87.87,0,0,0,77.26,7l.22-.19.24-.15A.64.64,0,0,1,78,6.6a4.23,4.23,0,0,1,.46-.48l.44-.43c.15-.14.29-.29.44-.45a4.53,4.53,0,0,0,.42-.56c.18-.15.38-.29.58-.44a4.27,4.27,0,0,0,.53-.45,1.47,1.47,0,0,0,.54-.16l.52-.28s.07,0,.07,0,0,0,.06.1.07-.1.11-.09.07,0,.09-.15a1.62,1.62,0,0,0,.44,0,2,2,0,0,1,.43,0,1,1,0,0,1,.45.1,1.29,1.29,0,0,1,.47.43,6,6,0,0,1,.31,1.4,4.29,4.29,0,0,1-.13,1.49.24.24,0,0,0,.23,0l.23-.14a1.28,1.28,0,0,1,.21-.14.14.14,0,0,1,.18,0,.42.42,0,0,1,.18-.11l.2-.08A.78.78,0,0,0,85.64,6,.31.31,0,0,0,85.75,5.76Z"/><path class="cls-3" d="M3.06,22.91a.52.52,0,0,0-.18.32c0,.13,0,.26-.08.39a.76.76,0,0,1-.17.32.48.48,0,0,1-.41.11c0,.06-.05.09,0,.1s0,.05.07.14a.51.51,0,0,0-.32,0,.69.69,0,0,1-.23.09,1.16,1.16,0,0,1-.6-.4,3,3,0,0,1-.42-.63,6.29,6.29,0,0,1-.32-.7,6.61,6.61,0,0,0-.27-.63s0-.06.05-.05H.27a1.12,1.12,0,0,1-.12-.35A.84.84,0,0,0,0,21.33c.3-.64.62-1.32,1-2l1-2.14c.35-.72.7-1.45,1-2.19s.69-1.45,1-2.16a6.42,6.42,0,0,1,.85.37,4,4,0,0,1,.76.49,2.8,2.8,0,0,1,.59.65,2.09,2.09,0,0,1,.32.83c0,.07,0,.09-.08.07s-.06,0-.08,0a.5.5,0,0,1,.09.13.22.22,0,0,1,0,.08.25.25,0,0,0,0,.1.36.36,0,0,0,.08.17.12.12,0,0,0-.11,0s0,0-.11,0a.59.59,0,0,1,0,.35.73.73,0,0,1-.09.22.62.62,0,0,0-.1.22.52.52,0,0,0,0,.32.12.12,0,0,0-.09,0l0,.05a.1.1,0,0,1,0,.05S6,17,6,17a5.62,5.62,0,0,1,0,.82l0,.85c0,.28,0,.58,0,.88a5.38,5.38,0,0,0,.12.94,3.23,3.23,0,0,0,1.09-1,5.74,5.74,0,0,0,.66-1.39,11.27,11.27,0,0,0,.37-1.64c.09-.58.18-1.18.27-1.78a1.34,1.34,0,0,0,.28-.42,4.51,4.51,0,0,0,.17-.52c.05-.18.09-.36.14-.54a1.94,1.94,0,0,1,.2-.49,1,1,0,0,1,.47.16,3.47,3.47,0,0,1,.37.3,3.65,3.65,0,0,0,.36.31,1.05,1.05,0,0,0,.47.18c.14.21.28.41.4.6a1.66,1.66,0,0,1,.25.65,1.35,1.35,0,0,0-.14.35c0,.12-.06.25-.1.37a1.37,1.37,0,0,1-.15.35.81.81,0,0,1-.26.26,7.37,7.37,0,0,1-.14.88c-.07.27-.12.53-.18.79s-.09.53-.14.82a5.38,5.38,0,0,0,0,.92c-.1.3-.2.61-.32.93a5.85,5.85,0,0,0-.24.88,1.65,1.65,0,0,0-.47.58l-.36.69c-.06,0-.09.05-.1,0s0-.05-.14-.06,0,.16-.05.18,0,.11,0,.23a1.43,1.43,0,0,0-.47.33,4,4,0,0,1-.45.37,1.33,1.33,0,0,1-.56.23,1.75,1.75,0,0,1-.84-.13,7.67,7.67,0,0,1-1.37-1.3,5.71,5.71,0,0,1-1-1.73.33.33,0,0,0-.23.2,2.52,2.52,0,0,0-.15.33c0,.11-.08.22-.12.31a.21.21,0,0,1-.19.14.68.68,0,0,1-.12.26l-.16.23A1.23,1.23,0,0,0,3,22.6.5.5,0,0,0,3.06,22.91Z"/><path class="cls-3" d="M23.53,23c-.05,0-.1,0-.14-.12s-.09-.17-.14-.26h.17a1.27,1.27,0,0,1-.05-.63,5.07,5.07,0,0,1,.13-.56c.05-.19.1-.36.13-.53a.92.92,0,0,0-.05-.54c.05,0,.09,0,.12,0a2.18,2.18,0,0,0,.06-.22,1.29,1.29,0,0,0,0-.28,1.44,1.44,0,0,0,0-.24,6.12,6.12,0,0,0,.32-1c.08-.35.15-.69.21-1s.13-.66.21-1a5,5,0,0,1,.31-.9,1.07,1.07,0,0,1,.46,0,.58.58,0,0,1,.32.22,4.39,4.39,0,0,0,.86-.91c.25-.36.5-.7.76-1a4.9,4.9,0,0,1,.86-.9,2.29,2.29,0,0,1,1.21-.47q.38.27.84.57a2.79,2.79,0,0,1,.77.76l.24.17.24.16v.23a2.19,2.19,0,0,1,.37.48,5.1,5.1,0,0,1,.26.58c.08.2.16.41.23.62a4.26,4.26,0,0,0,.25.57.36.36,0,0,0,0,.17.39.39,0,0,0,0,.14.83.83,0,0,0,0,.15,1.41,1.41,0,0,1,0,.22A2.09,2.09,0,0,1,32,18.81a3.73,3.73,0,0,1-1.15.83,12.44,12.44,0,0,1-1.45.55,12.43,12.43,0,0,0-1.39.49s0,.06.07.06.06,0,0,.09l.73.46c.17.11.33.21.48.29a2.47,2.47,0,0,0,.5.19c.18.05.43.12.76.19l.76.18.49.11.47.07.67.08a1.44,1.44,0,0,1,.28.4,2.38,2.38,0,0,1,.16.47,1.39,1.39,0,0,1,0,.45.62.62,0,0,1-.13.33c0,.05,0,.06.08.06a.38.38,0,0,1,.15,0,1.07,1.07,0,0,0-.19.18l-.15.22a1.68,1.68,0,0,1-.18.21.46.46,0,0,1-.26.1,2.39,2.39,0,0,1-1.44,0,17.8,17.8,0,0,1-2.23-.72c-.45-.17-.81-.32-1.1-.45s-.52-.27-.73-.4a5.06,5.06,0,0,1-.58-.42l-.61-.54a.06.06,0,0,0,0,.06.09.09,0,0,1-.06.06,3.83,3.83,0,0,1-.24,1,3.61,3.61,0,0,1-.48.8c-.16,0-.27,0-.33,0a1.24,1.24,0,0,1-.21.18.45.45,0,0,1-.24,0l-.14-.09-.14-.09a.43.43,0,0,0-.25,0L23.83,24c0-.09-.12-.12-.25-.11a.59.59,0,0,0,0-.25,1,1,0,0,0-.05-.18,1.21,1.21,0,0,1,0-.18A.34.34,0,0,1,23.53,23Zm5.22-7.14a4,4,0,0,1-.45.54c-.17.16-.33.32-.5.5a3.28,3.28,0,0,0-.42.56,1.91,1.91,0,0,0-.27.73,5.85,5.85,0,0,0,1.37-.37l1.36-.56a1.65,1.65,0,0,0-.4-.93A1.74,1.74,0,0,0,28.75,15.9Z"/><path class="cls-3" d="M33.3,15.57a.86.86,0,0,0-.06-.23l-.08-.22a2.47,2.47,0,0,1-.14-.41,1.64,1.64,0,0,1-.07-.52A.6.6,0,0,1,33,14l.09-.12.07-.28h.75c.39,0,.8,0,1.22,0l1.28-.11c.48-.06,1-.11,1.54-.14.06-.12.09-.19.11-.22l0-.11.17-.09a.82.82,0,0,1,.5.08.87.87,0,0,1,.22.2l.83-.09.87-.12L42,12.79a10.76,10.76,0,0,1,1.25-.08,4,4,0,0,1,.5,0l.45,0,.19.14a.78.78,0,0,0,.16.21,1.42,1.42,0,0,0,.22.18,3.43,3.43,0,0,1,.46.47,1.12,1.12,0,0,1,.16.83l-.08.16-.15.12-.16.2h-.17a.74.74,0,0,0-.24,0l-.18.07-.14.05-.18.06-.26,0h-.22a9.55,9.55,0,0,0-1,.06c-.36.05-.71.09-1.06.15l-.72.08-.62.07c-.11.27-.2.51-.28.72l-.27.63c-.09.2-.18.41-.26.63a5.35,5.35,0,0,0-.24.71,5.22,5.22,0,0,0-.31.54,3,3,0,0,0-.21.58,1.77,1.77,0,0,0-.33.58l-.18.53-.06.24a.57.57,0,0,0-.14.17.41.41,0,0,1-.08.14,2.23,2.23,0,0,1-.13.39l-.06.17a.22.22,0,0,0,0,.13.71.71,0,0,1-.09.26,1.15,1.15,0,0,1,0,.19,1.29,1.29,0,0,0,0,.19c0,.07,0,.14,0,.19a.32.32,0,0,0,0,.17l.1.12a.59.59,0,0,1,.07.16l.08.05.08,0a.41.41,0,0,0,.24.13l.15.19a1,1,0,0,1-.17.87,1.12,1.12,0,0,1-.94.36l-.22,0a.79.79,0,0,1-.12-.14l-.24-.1a.34.34,0,0,1-.17-.15.15.15,0,0,0-.08,0,.09.09,0,0,1-.07,0,1.22,1.22,0,0,1-.25-.11l-.18-.1c0-.1,0-.17,0-.22a1.65,1.65,0,0,1-.2-.37c0-.14-.08-.28-.11-.42s-.06-.22-.09-.32a.64.64,0,0,0-.12-.25,5.48,5.48,0,0,1,.21-1.83c.15-.5.33-1,.51-1.45.11-.25.21-.5.3-.76s.18-.53.25-.8l.17-.17.14-.11a1.1,1.1,0,0,1,.08-.4c0-.13.11-.26.17-.4l.12-.25a.7.7,0,0,0,.07-.22h-.2l-.17,0a1.41,1.41,0,0,1-.4.05h-.2a.75.75,0,0,1-.23.07h-.6a.76.76,0,0,0-.29,0h-.8l-.28,0a1.1,1.1,0,0,1-.33-.12L33.64,16c-.06-.12-.12-.18-.17-.19l-.17,0Z"/><path class="cls-3" d="M42.91,23.85a.05.05,0,0,1-.07,0,.14.14,0,0,1,0-.09.1.1,0,0,1,0-.08.09.09,0,0,1,.1,0,1.24,1.24,0,0,1-.25-.46,3.43,3.43,0,0,0-.21-.5.23.23,0,0,0,.06-.13.75.75,0,0,1,0-.16.23.23,0,0,1,.06-.12s.06,0,.1,0a.66.66,0,0,1,0-.28c0-.07,0-.14.07-.2a.7.7,0,0,0,.06-.19.4.4,0,0,0,0-.22,2.11,2.11,0,0,0,.39-.88,6.08,6.08,0,0,0,.11-.87,1.32,1.32,0,0,0,.24-.37,2.13,2.13,0,0,0,.15-.49,2.72,2.72,0,0,0,0-.49.81.81,0,0,0-.07-.38.08.08,0,0,1,.07-.07.34.34,0,0,1,.14,0,13.16,13.16,0,0,0,.15-1.39A11.4,11.4,0,0,1,44.24,15a4.83,4.83,0,0,1,.38-1.25,1.3,1.3,0,0,1,.85-.7,2.7,2.7,0,0,0,.29.69c.12.2.25.39.39.58l.43.56a4.85,4.85,0,0,1,.4.63c0,.24,0,.51-.07.82s-.08.63-.14,1-.11.63-.17.94-.11.55-.16.76a.12.12,0,0,0,.11.1q.09,0,0,.18l.94-.21,1-.2c.32-.07.63-.15.94-.24a5.64,5.64,0,0,0,.87-.35c.06-.5.14-1,.23-1.48a4.38,4.38,0,0,0,0-1.49.69.69,0,0,0,.16-.18.25.25,0,0,1,.19-.14,2.4,2.4,0,0,1-.08-.76,2.44,2.44,0,0,1,.13-.74,1.94,1.94,0,0,1,.35-.61,1.09,1.09,0,0,1,.58-.33,3.63,3.63,0,0,1,.36.64l.31.69c.11.24.22.46.34.67a1.8,1.8,0,0,0,.46.53c0,.36.06.74.08,1.12s0,.77,0,1.18-.2.92-.32,1.36a8.94,8.94,0,0,0-.25,1.42.93.93,0,0,0-.21.33l-.15.39a3.2,3.2,0,0,1-.16.39,1,1,0,0,1-.23.31.82.82,0,0,1,0,.41.69.69,0,0,0,.1.46,1.67,1.67,0,0,1-.12.81,1.81,1.81,0,0,1-.4.55,2,2,0,0,1-.6.36l-.66.24-.29-.2a.79.79,0,0,0-.32-.15l.08-.14a4.11,4.11,0,0,1-.54-.66,1.39,1.39,0,0,1-.21-.81s0-.08,0-.21,0-.27.07-.41,0-.29.08-.41,0-.21,0-.22a4.57,4.57,0,0,0-.91.21,9,9,0,0,0-.91.35,7.13,7.13,0,0,0-.83.41l-.62.35a.88.88,0,0,1-.08.26c-.05.15-.11.3-.18.46a2.87,2.87,0,0,1-.25.43c-.08.13-.18.19-.27.17a.33.33,0,0,0,.06.12.19.19,0,0,1,0,.15,2.22,2.22,0,0,0-.47.2,2.13,2.13,0,0,1-.43.21,1.1,1.1,0,0,1-.48.08,1.49,1.49,0,0,1-.62-.19.27.27,0,0,0-.09-.2,1.49,1.49,0,0,0-.2-.15L43,23.94S42.91,23.88,42.91,23.85Z"/><path class="cls-3" d="M54.67,23.85a.75.75,0,0,1-.18-.3.5.5,0,0,0-.26-.28c0-.15,0-.33-.08-.54s-.07-.41-.11-.62-.06-.43-.08-.64a2.81,2.81,0,0,1,0-.59.85.85,0,0,1,.11-.26,2,2,0,0,1,.14-.25,1.75,1.75,0,0,0,.11-.24.53.53,0,0,0,0-.25c.07,0,.11,0,.12-.1s.07-.08.15-.05c.07-.23.15-.45.23-.65l.27-.57c.09-.19.19-.38.29-.57a4.89,4.89,0,0,0,.27-.65,1.57,1.57,0,0,1-.38-.54,3.09,3.09,0,0,1-.18-.59q-.06-.3-.09-.6a4.9,4.9,0,0,0-.13-.62,2,2,0,0,1,.45-.46,2.49,2.49,0,0,1,.59-.29,4.63,4.63,0,0,1,.69-.19c.26-.05.52-.1.8-.17q.75-.22,1.35-.36c.39-.09.78-.16,1.15-.22l1.17-.16q.61-.06,1.41-.21s0,0,0,0h.11a.17.17,0,0,0,.17.11.28.28,0,0,0,0-.09.17.17,0,0,1,0-.07l.09,0,.09,0a.06.06,0,0,0,.07,0s0-.05,0-.1a1.56,1.56,0,0,0,.48.54,4.18,4.18,0,0,0,.66.37,1.72,1.72,0,0,1,0,.2l0,.12a.41.41,0,0,0,0,.12,1,1,0,0,0,0,.2,2.17,2.17,0,0,1-.57.65,2.48,2.48,0,0,1-.68.36,4.45,4.45,0,0,1-.76.19l-.81.13a6.39,6.39,0,0,0-.84.2,3.58,3.58,0,0,0-.83.37.6.6,0,0,0-.22,0l-.21,0-.25.06a.57.57,0,0,1-.32,0,.66.66,0,0,1-.28.16l-.34.09a.87.87,0,0,1,.07.35.73.73,0,0,0,0,.3,8.83,8.83,0,0,0,1.45,0c.53,0,1-.08,1.56-.1a.13.13,0,0,1,0,.11.13.13,0,0,0,0,.1,2,2,0,0,1,.26.24l.26.27a1.74,1.74,0,0,0,.27.22.54.54,0,0,0,.33.07,1.42,1.42,0,0,1,.11.33.66.66,0,0,1,0,.36c-.21.13-.42.27-.61.41s-.41.27-.62.39a4.86,4.86,0,0,1-.7.28,2.65,2.65,0,0,1-.81.09h-.13a.22.22,0,0,1-.13-.06A.79.79,0,0,1,59,20a1,1,0,0,0-.43.06A1.52,1.52,0,0,0,58,20a1.5,1.5,0,0,1-.5-.08c-.19.27-.37.56-.54.85a7.43,7.43,0,0,0-.43.95,6.3,6.3,0,0,0,1.06.08,6.62,6.62,0,0,0,.8-.07l.77-.09a7.29,7.29,0,0,1,1,0,3,3,0,0,1,.89-.26,6.33,6.33,0,0,0,1-.21.59.59,0,0,1,.27.18l.21.27a1.1,1.1,0,0,0,.21.22.29.29,0,0,0,.28.06.5.5,0,0,1,.1.19c0,.08,0,.14,0,.21a.26.26,0,0,0,.07.14s.09.05.17,0a3.1,3.1,0,0,1-.66.94,2.86,2.86,0,0,1-.83.51,4.44,4.44,0,0,1-1,.26l-1.28.21a.57.57,0,0,1-.29,0,.64.64,0,0,0-.24,0l-1,.15a7,7,0,0,1-1.21.07,5.59,5.59,0,0,1-1.17-.16A2,2,0,0,1,54.67,23.85Z"/><path class="cls-3" d="M63.42,22.9l.2-.16,0-.33q.39-.94.81-1.83c.27-.58.56-1.18.86-1.79l.29-.6c.1-.19.2-.4.29-.61a.53.53,0,0,1,0-.13.55.55,0,0,1,0-.16c.14-.21.26-.4.35-.56l.26-.52q.14-.32.3-.63a3.76,3.76,0,0,1,.41-.6l.11-.16h.18l.13-.05a.47.47,0,0,1,.18,0l.28,0a2.59,2.59,0,0,0,.91-.68,7.64,7.64,0,0,0,.81-1.07l.19-.26.25.15a.67.67,0,0,0,.25.1l.36.11c.21,0,.43.11.64.18a1.16,1.16,0,0,1,.48.27l.08.14c0,.12,0,.22,0,.31l.06.28c0,.22.08.44.11.65s0,.45.06.71l.15.64c0,.21.09.42.13.63s.11.59.17.87a6.61,6.61,0,0,0,.25.79h.19a1.43,1.43,0,0,1,.44-.09l.2,0,.06.19.08.09.11.1a.68.68,0,0,1,.37.1l.19.16.08.07.08.06.28.11-.16.29a2,2,0,0,1-.52.64,3.28,3.28,0,0,1-.79.52.79.79,0,0,1,0,.2,2.07,2.07,0,0,0,0,.22c0,.21.08.43.1.65a2.36,2.36,0,0,1,0,.7,3.46,3.46,0,0,1-.36.72,2.7,2.7,0,0,1-1.15,1,2,2,0,0,1-.75.18,1.06,1.06,0,0,1-.32-.11l-.18-.12a1.57,1.57,0,0,0-.2-.13l-.21-.09.06-.24a.22.22,0,0,0,0-.21,1.21,1.21,0,0,0-.23-.25l-.11-.11-.11-.11L70,22.79l.51-.14a1.26,1.26,0,0,0,.63-.32,1.1,1.1,0,0,0,.12-.7,1.57,1.57,0,0,0-.64,0l-.5.12-.7.16a3.54,3.54,0,0,1-.75.07,3.75,3.75,0,0,1-.56-.05h-.17l0-.17a.08.08,0,0,0,0-.07l-.07-.08-.19-.25a.43.43,0,0,1,0-.39.69.69,0,0,1-.13-.36,1.63,1.63,0,0,0-.1.25c0,.08-.05.15-.07.22l-.06.21-.21,0a.19.19,0,0,0,0,.09.12.12,0,0,0,0,.1l.06.17-.15.14a.3.3,0,0,1-.08.08l-.08.06a2,2,0,0,1-.09.33c0,.1-.07.2-.11.31l-.15.48a1.58,1.58,0,0,0-.07.47l-.06.21a.57.57,0,0,1-.2.18l-.23.11a.63.63,0,0,0-.21.13l0,.2-.24,0-.28.06-.2,0-.2,0c-.13-.12-.23-.22-.31-.28A1.27,1.27,0,0,0,64,24l-.09-.13a.58.58,0,0,1-.08-.23c0-.06,0-.13,0-.21a.65.65,0,0,0-.09-.28Zm5-4.07c-.15.21-.29.43-.43.66h.22l.21,0,1-.08q.47,0,1-.15c-.09-.39-.18-.78-.28-1.18s-.2-.81-.32-1.22l-.07.16a7.41,7.41,0,0,0-.75.91,7.94,7.94,0,0,0-.6.92Z"/><path class="cls-3" d="M15,24.44a3,3,0,0,1-2.25-.54,3.35,3.35,0,0,1-.77-.78,4.78,4.78,0,0,1-.52-1,5.12,5.12,0,0,1,.07-1.93,6.45,6.45,0,0,1,.64-1.6,10.35,10.35,0,0,1,1-1.38l1-1.23a.19.19,0,0,0,.18,0,.53.53,0,0,0,.13-.13l.12-.15a.36.36,0,0,1,.17-.11.6.6,0,0,1,.16-.24l.22-.18.22-.18a.84.84,0,0,0,.18-.23.73.73,0,0,0,.27-.11,1.84,1.84,0,0,0,.22-.17c.07-.07.14-.12.21-.18a1,1,0,0,1,.27-.12V14a1.46,1.46,0,0,0,.5-.35c.1-.12.23-.28.37-.48l.28,0,.32,0a1.53,1.53,0,0,1,.26-.39,3.27,3.27,0,0,1,.36-.28,1.52,1.52,0,0,0,.5.15.74.74,0,0,1,.49.24.43.43,0,0,0,.11.29,1.8,1.8,0,0,0,.2.19l.22.18a.44.44,0,0,1,.14.26.13.13,0,0,0,.1,0,.08.08,0,0,1,.1,0,1.67,1.67,0,0,0,.06.2c0,.05.05.1.07.14a.64.64,0,0,1,.08.14.69.69,0,0,1,.07.19,3.73,3.73,0,0,0-.14.4.39.39,0,0,1-.25.28c0,.09,0,.13.1.14s.09,0,.11.11a.36.36,0,0,1-.05.24,14.9,14.9,0,0,1,.8,1.54,12.54,12.54,0,0,0,.81,1.54,1,1,0,0,0,0,.43,2.83,2.83,0,0,0,.14.41l.17.41a3,3,0,0,1,.11.4,2.71,2.71,0,0,1,0,.57,3.63,3.63,0,0,1-.13.59,2.27,2.27,0,0,1-.25.52,1.07,1.07,0,0,1-.36.37,1.93,1.93,0,0,1-.62.51,3.61,3.61,0,0,0-.69.46,1.91,1.91,0,0,1-.47.18l-.52.12a3.56,3.56,0,0,1-.48.24,5.71,5.71,0,0,1-.58.21c-.2.06-.39.11-.59.15a2,2,0,0,1-.53,0,5.23,5.23,0,0,1-1.1.28A3.46,3.46,0,0,1,15,24.44Zm.21-5.68a4.07,4.07,0,0,1-.37.65c-.14.19-.28.38-.41.58a3.94,3.94,0,0,0-.36.63,2.14,2.14,0,0,0-.16.79,1.31,1.31,0,0,0,.74.32,3.69,3.69,0,0,0,.88,0c.31,0,.61-.07.91-.12a5,5,0,0,1,.81-.08c0-.09,0-.14.13-.14a3.2,3.2,0,0,0,1.22-.36c.37-.21.76-.41,1.17-.62a1.08,1.08,0,0,1,.2-.33.67.67,0,0,0,.14-.41,1.33,1.33,0,0,1-.1-.23,1.8,1.8,0,0,1,0-.28A7.44,7.44,0,0,1,19.23,18a8.49,8.49,0,0,0-.68-1.26.38.38,0,0,1-.13.16c-.06,0-.13,0-.2,0a.37.37,0,0,1-.14.21.36.36,0,0,1-.21,0,.67.67,0,0,1-.24,0,.74.74,0,0,1-.21-.13c-.36.29-.72.58-1.08.85a5.5,5.5,0,0,0-1,.95s-.08,0-.09,0S15.22,18.74,15.16,18.76Z"/></g></g></svg>